<svg xmlns="http://www.w3.org/2000/svg" xmlns:xlink="http://www.w3.org/1999/xlink" viewBox="0 0 234.99 312.24"><defs><style>.cls-1{fill:#4a4949;}.cls-2{fill:#daede1;}.cls-3{fill:#fbf4be;}.cls-12,.cls-16,.cls-17,.cls-3,.cls-6,.cls-7,.cls-8{stroke:#49505e;}.cls-3,.cls-6,.cls-7,.cls-8{stroke-miterlimit:10;}.cls-4{fill:#769baf;}.cls-16,.cls-17,.cls-5{fill:none;}.cls-6{fill:#848485;}.cls-7{fill:#9fa0a0;}.cls-8{fill:#fff;}.cls-9{fill:#49505e;}.cls-10{fill:#f29d82;opacity:0.48;}.cls-11{fill:#363737;}.cls-12{fill:#e6886e;}.cls-12,.cls-17{stroke-linecap:round;}.cls-12,.cls-16,.cls-17{stroke-linejoin:round;}.cls-13{fill:#f2995c;}.cls-14{fill:#98a8cc;}.cls-15{fill:url(#未命名漸層_38);}</style><linearGradient id="未命名漸層_38" x1="-3006.45" y1="4566.54" x2="-3012.81" y2="4581.46" gradientTransform="translate(714.65 -5357.71) rotate(-27.21)" gradientUnits="userSpaceOnUse"><stop offset="0" stop-color="#f5f4e2"/><stop offset="0.3" stop-color="#ebd864"/><stop offset="1" stop-color="#f2995c"/></linearGradient></defs><g id="圖層_2" data-name="圖層 2"><g id="圖層_2-2" data-name="圖層 2"><ellipse class="cls-1" cx="98.05" cy="275.02" rx="2.86" ry="11.62" transform="translate(-177.6 178.74) rotate(-51.12)"/><path class="cls-2" d="M53.35,137.42S57.41,47.78,136.45,49c77.08,1.14,78.68,90.87,78.68,90.87Z"/><path class="cls-3" d="M86.34,136.54s.79-53.13,49.23-52.41c45.66.67,46.61,53.83,46.61,53.83Z"/><path class="cls-4" d="M52.6,140S-20.11,309.5,131.8,311.75,216.06,142.4,216.06,142.4Z"/><path class="cls-5" d="M52.91,140.45S-19.8,310,132.11,312.22s84.25-169.35,84.25-169.35Z"/><path class="cls-5" d="M52.91,140s-72.7,169.53,79.21,171.78S216.37,142.4,216.37,142.4Z"/><path class="cls-6" d="M223.14,150.54a9.71,9.71,0,0,0-5.62.21c-4.37,1.35-5.8,9.31-3.19,17.8s8.27,14.26,12.64,12.92a11.12,11.12,0,0,0,5.5-3.73"/><ellipse class="cls-7" cx="225.92" cy="164.98" rx="7.7" ry="14.94" transform="translate(-38.53 73.74) rotate(-17.1)"/><path class="cls-6" d="M46,147.92a9.64,9.64,0,0,1,5.61.38c4.33,1.47,5.52,9.47,2.66,17.88s-8.69,14-13,12.54a11.18,11.18,0,0,1-5.39-3.89"/><ellipse class="cls-7" cx="42.75" cy="162.27" rx="14.94" ry="7.7" transform="matrix(0.32, -0.95, 0.95, 0.32, -124.64, 150.45)"/><path class="cls-6" d="M50.05,281.93a6.9,6.9,0,0,1,1.31-5.46c2.53-3.59,13-.51,23.47,6.86s16.83,16.25,14.3,19.83c0,0-1.47,2.62-5.8,3.37"/><ellipse class="cls-7" cx="68.11" cy="292.83" rx="7.39" ry="21.5" transform="translate(-210.33 179.44) rotate(-54.75)"/><path class="cls-6" d="M215.17,284.37a6.94,6.94,0,0,0-1.14-5.5c-2.43-3.65-13-.89-23.67,6.17s-17.3,15.74-14.88,19.4c0,0,1.4,2.66,5.7,3.54"/><ellipse class="cls-7" cx="196.79" cy="294.73" rx="21.5" ry="7.39" transform="matrix(0.83, -0.55, 0.55, 0.83, -130.12, 157.89)"/><rect class="cls-6" x="50.4" y="137.25" width="168.55" height="3.94" rx="1.83" transform="translate(2.08 -1.98) rotate(0.85)"/><circle class="cls-8" cx="149.62" cy="114.46" r="4.89"/><circle class="cls-9" cx="149.62" cy="114.46" r="1.64"/><circle class="cls-8" cx="126.33" cy="114.11" r="4.89"/><circle class="cls-9" cx="126.33" cy="114.11" r="1.64"/><circle class="cls-10" cx="110.29" cy="122.87" r="6.3"/><circle class="cls-10" cx="164.95" cy="123.68" r="6.3"/><ellipse class="cls-1" cx="226.36" cy="164.43" rx="4.13" ry="8.78" transform="translate(-38.35 73.85) rotate(-17.1)"/><ellipse class="cls-1" cx="42.08" cy="161.71" rx="8.78" ry="4.13" transform="translate(-124.56 149.43) rotate(-71.2)"/><ellipse class="cls-1" cx="197.05" cy="295.11" rx="14.94" ry="3.68" transform="translate(-130.28 158.1) rotate(-33.56)"/><path class="cls-8" d="M108.22,62.13a2.74,2.74,0,0,0-2.76-2.85c-2,.14-9.66,3.83-19,13.66C81.21,78.4,77,84.52,75,89a3.2,3.2,0,0,0-.23,1.07,2.8,2.8,0,0,0,5.38,1.14h0a45.48,45.48,0,0,1,10.5-15.14c6.19-6,16.29-11.59,16.57-11.83A2.77,2.77,0,0,0,108.22,62.13Z"/><circle class="cls-8" cx="73.21" cy="100.43" r="2.38"/><ellipse class="cls-1" cx="68.05" cy="292.77" rx="3.68" ry="14.94" transform="translate(-210.31 179.36) rotate(-54.75)"/><path class="cls-11" d="M0,185.37c0,.28,0,.59.31.76Z"/><path class="cls-12" d="M144.41,132.7c-.8,1.44-2.27,1.38-4.48,1.29-2-.08-7.17-1.68-5.75-3.92s5.39-5.69,8.47-4.19C144.48,126.78,145.69,130.38,144.41,132.7Z"/><path class="cls-13" d="M137.45,3.88c0-.06,0-.08-.09-.08s-.05-.17-.17-.15l-.58-.37c0-.13-.07-.21-.21-.2a.08.08,0,0,0-.1-.06.38.38,0,0,0-.42-.27,14.37,14.37,0,0,0-3.3-1.34,42.64,42.64,0,0,0-19.84.11c-1.25.32-2.53.55-3.74,1-1,.35-3.82,1.41-4.26,1.56A22.77,22.77,0,0,0,99,7.66,4.63,4.63,0,0,0,97.3,9.13c-1.4,2.51-.94,5.25-1.07,7.89-.08,1.66,0,3.37-.11,5.05-.74,8.58-.94,17.17-1.18,25.77a61.61,61.61,0,0,1-.32,6.79c.1,0,.28.11.39.18-.11-.07-.29-.13-.39-.18l-.6.19a3.43,3.43,0,0,0-1.8.43h0c-.15,0-.22.11-.17.26a.15.15,0,0,0,0,.19c0,.17,0,.34-.07.52l-.26.35-.08.05.07.07,0,.53.18.88a2.33,2.33,0,0,0-.27,1.3c0,.47-.2,1.07.67,1.05l.07,0c.09,0,.13.14.15.27a1.31,1.31,0,0,1,0,.28h0a3.75,3.75,0,0,0,.37.72,7.46,7.46,0,0,1,1.64-2.15c2.22-2.09,6.14-4.15,11.19-5.92a81.38,81.38,0,0,1,7.89-2.29c3-.72,6.26-1.33,9.64-1.8a100.12,100.12,0,0,1,13-1h2.07c9.09.17,15.88,1.9,17.8,4.8a7.8,7.8,0,0,0,.59-.87.47.47,0,0,1,.44-.31h0a.82.82,0,0,0,.4-.9l0-.14-.06-.2-.12-.3c-.21-.56-.63-1.06-.55-1.71-.22-.49,0-1.1-.47-1.51-.43-.24-.07-1.1-.84-1.08a4.53,4.53,0,0,0-1.6.06c-.48,0-.79-.08-1-.59-1-3-2-6-3-8.94-.58-1.65-1.06-3.38-1.71-5-1.1-2.7-2.11-5.44-3.08-8.19-1.42-4-3.19-7.85-4.24-11.95-.59-2.28-1.55-4.41-2.24-6.64A1.67,1.67,0,0,0,137.45,3.88Z"/><path class="cls-14" d="M159,53.06a1.57,1.57,0,0,1,.23.76c.5,16.68-12.16,31.49-29.72,33.93s-33.78-8.29-38-24.32a2.1,2.1,0,0,1,.08-1.31l.81-2.1-.51-2.92-2.1,5.06a3.08,3.08,0,0,0-.14,1.94c4.5,16.56,21.53,27.51,40,24.94C148,86.5,161.27,71.6,161.35,54.66a4,4,0,0,0-1-2.64l-4-4.71L157.1,50Z"/><path class="cls-15" d="M137.08,86.58l-.16-.24a.47.47,0,0,0-.57-.25c-4.71.72-9.43,1.36-14.17,1.82-.46,0-.5.24-.47.58a.25.25,0,0,0-.16.06h0a4.69,4.69,0,0,1,.4,1.34,1.94,1.94,0,0,1,0,.48c.15.28,0,.81.67.62a36.28,36.28,0,0,1,5.21-.72,30.21,30.21,0,0,0,6.89-1,5.28,5.28,0,0,1,1.45-.18c.93.14,1.11-.28,1-1.06l-.18-.89a.29.29,0,0,0,.19-.27.93.93,0,0,0-.05-.32h0Z"/><path class="cls-16" d="M161,54.78c-.07,14.5-9.85,27.5-24.12,32.54a.36.36,0,0,1-.16.17l.18.89c.14.78,0,1.19-1,1.05a5.19,5.19,0,0,0-1.44.19,30.37,30.37,0,0,1-6.9,1,36.28,36.28,0,0,0-5.21.72c-.7.18-.52-.35-.67-.63a1.89,1.89,0,0,0,0-.47,2.9,2.9,0,0,0-.18-.76c-15.29-1-28.37-11-32.23-25.23a3,3,0,0,1,.14-1.94l2.1-5.06.2,1.18a.36.36,0,0,0,0-.09l-.18-.87c0-.18,0-.36,0-.54l-.07-.06.08-.06.26-.35a.47.47,0,0,0,.09-.12.47.47,0,0,1-.09.12l.06-.51a.15.15,0,0,1,0-.19q-.06-.23.18-.27h0A3.66,3.66,0,0,1,93.91,55l.59-.18a3.29,3.29,0,0,1,.39.17,3.29,3.29,0,0,0-.39-.17,57.23,57.23,0,0,0,.32-6.8c.25-8.59.44-17.19,1.19-25.76.14-1.68,0-3.39.1-5.06.13-2.63-.33-5.38,1.07-7.89a4.81,4.81,0,0,1,1.66-1.47,23.08,23.08,0,0,1,5.79-3.59A2,2,0,0,1,106,4c.74-1,1.93-1,2.94-1.33,1.21-.42,2.49-.66,3.73-1a42.68,42.68,0,0,1,19.85-.1A13.86,13.86,0,0,1,135.77,3a.35.35,0,0,1,.41.27c.06,0,.09,0,.1.06s.2.07.21.19l.58.37c.12,0,.18,0,.17.15a.08.08,0,0,1,.09.09,1.67,1.67,0,0,1,1.18,1.28c.69,2.23,1.66,4.36,2.24,6.64,1.06,4.1,2.83,8,4.24,12,1,2.74,2,5.48,3.09,8.19.65,1.6,1.12,3.33,1.7,5,1,3,2,6,3,8.94.18.51.49.6,1,.58a4.53,4.53,0,0,1,1.6-.06c.6,0,.52.5.66.85l4,4.7A4,4,0,0,1,161,54.78Z"/><path class="cls-17" d="M92.48,60.67s-1.13,1.25-1,2.11S94,73.86,101.22,79.22,115.68,89.35,129,87.14s7.38-1,7.38-1,10.37-3.2,16.27-11.81,6.25-14,6.41-15.92.19-4.54.19-4.54L157.1,50s.91,1.52.53,2l-1.4,1.62s-6.22-8.79-34.52-3.76S93,61.94,93,61.94Z"/></g></g></svg>