<svg xmlns="http://www.w3.org/2000/svg" viewBox="0 0 52.22 47.01"><defs><style>.cls-1{fill:#4b515f;}</style></defs><title>資產 91</title><g id="圖層_2" data-name="圖層 2"><g id="圖層_2-2" data-name="圖層 2"><path class="cls-1" d="M0,45.84V.11C11.75,1.9,42.27,1.85,52.22,0V47c-8.7-2.81-17.4-1.21-26-1.43S9,45.73,0,45.84ZM9.45,5C15.86,8,15.86,8,15.75,15.75c0,.42,0,.83,0,1.25.2,3.2-.48,5.51-4.51,5.05-.61-.07-1.35.91-2,1.4a10.17,10.17,0,0,0,2,1.51c1.31.54,3.86.74,3.91,1.27a53.8,53.8,0,0,1,.07,12.36c-.14,1-3.57,1.43-5.47,2.17-.17.07-.21.47-.51,1.2H44.83V5ZM13,9.24H6.8v10H13Zm0,18.59c-7-1-8.31,1.37-5.84,9.83H13Zm34.89,14,.94,0V5.11h-.94ZM6.19,5.52,5.14,4.39C4.4,5.3,3,6.2,3,7.12,2.87,18.07,2.89,29,2.94,40c0,2.77,1.41,2.81,3.45,1.56C3.41,38.22,3.12,28.48,5.6,25a3.08,3.08,0,0,0,.2-2.76C3.16,18.18,3.28,8.91,6.19,5.52Z"/></g></g></svg>