<svg xmlns="http://www.w3.org/2000/svg" viewBox="0 0 47.41 47.27"><defs><style>.cls-1{fill:#4b515f;}</style></defs><title>資產 90</title><g id="圖層_2" data-name="圖層 2"><g id="圖層_2-2" data-name="圖層 2"><path class="cls-1" d="M9.87,15.37c-3.69-.9-5.77.19-6.33,3.54-.46,2.7-.44,5.48-.87,8.18-.11.73-1.09,1.31-1.67,2-.35-.71-1-1.43-1-2.12.12-2.86-.15-5.95.86-8.51,1.08-2.74,3.43-5,5.23-7.44l1.15.43c-.7-1.12-1.39-2.23-2.1-3.34C3,4.72,3.45,2.9,7.29,1.61a25.66,25.66,0,0,1,8-1.61c7.34,0,14.74-.06,22,.9,6.78.89,7.41,3.2,3.69,8.8-.34.5-.6,1.05-1.11,2,8.78,2.26,6.81,9.59,7.52,15.63.07.55-.85,1.21-1.32,1.82-.49-.6-1.32-1.15-1.42-1.81-.4-2.59-.51-5.22-.86-7.82-.5-3.77-2.1-4.83-5.37-4.35.78,8,1.47,16,2.37,23.91.32,2.83-.67,4.42-3.27,5.45a35.93,35.93,0,0,1-28-.11c-2.41-1-3.37-2.54-3.08-5.23.64-6,.91-12,1.57-17.91C8.19,19.33,9.15,17.51,9.87,15.37ZM23.79,45c4-.91,7.93-1.61,11.71-2.78A4.13,4.13,0,0,0,37.71,39c-.23-5.85-.63-11.72-1.41-17.53a5.89,5.89,0,0,0-3.14-4,26.62,26.62,0,0,0-19,0A6,6,0,0,0,11,21.43,169.68,169.68,0,0,0,9.54,38.58a4.41,4.41,0,0,0,2.23,3.5C15.65,43.32,19.7,44,23.79,45ZM40.58,4.53a68.5,68.5,0,0,0-33.78,0c2.86,6,2.8,5.45,8.27,4.82a75.68,75.68,0,0,1,17,0C37.54,9.93,37.48,10.45,40.58,4.53ZM12.5,13.68H34.61C30.89,10.19,17.14,10.09,12.5,13.68Z"/></g></g></svg>