<svg xmlns="http://www.w3.org/2000/svg" viewBox="0 0 41.58 52.25"><defs><style>.cls-1{fill:#4b515f;}</style></defs><title>資產 89</title><g id="圖層_2" data-name="圖層 2"><g id="圖層_2-2" data-name="圖層 2"><path class="cls-1" d="M36.33,48.31c-4.67,1.28-10.1,3.9-15.54,3.94S10.14,49.7,5.29,48.39L2,40.78C-1.33,32.87-.58,25.45,4.73,18.6c.83-1.07,1.78-2.06,3.28-3.78L.7,7.85A7.11,7.11,0,0,1,2.38,5.77c10.17-7.7,26.62-7.69,36.85,0A15.18,15.18,0,0,1,41.5,8.51c-1,.29-2.32.29-3,.94-1.7,1.68-3.11,3.64-4.79,5.67,4.84,4.92,8.32,10.22,7.78,17-.25,3.22-1.42,6.39-2.39,9.52C38.48,43.7,37.46,45.65,36.33,48.31ZM21,49.31a17.54,17.54,0,1,0-.33-35.07A17.54,17.54,0,1,0,21,49.31ZM7.26,7.29c9.07-4.32,18.12-4,27.22-.06C26.76,1.91,14,2,7.26,7.29Zm1.82,3.18C16.85,6.86,24.63,7,32.44,10.38,25.94,5.39,15.11,5.45,9.08,10.47Zm20.52,1.7C23.28,9.28,17,9.28,10.92,12.81,17.09,10.14,23.31,10.2,29.6,12.17Z"/></g></g></svg>