<svg xmlns="http://www.w3.org/2000/svg" viewBox="0 0 51.39 45.72"><defs><style>.cls-1{fill:#4b515f;}</style></defs><title>資產 87</title><g id="圖層_2" data-name="圖層 2"><g id="圖層_2-2" data-name="圖層 2"><path class="cls-1" d="M51.39,0V31.44H40.59c-.94,4.18-1.66,7.74-2.61,11.24a2.85,2.85,0,0,1-2,1.65c-5.43.57-10.88,1-16.33,1.38-.59,0-1.61-.25-1.78-.66-1.33-3.24-2.89-6.46-3.61-9.85-.54-2.55-1.2-3.74-4-3.64-3.18.11-7.76.92-9.2-.75-1.72-2-.88-6.29-.92-9.59C.11,14.5.19,7.79.23,1.07A4.72,4.72,0,0,1,.57,0Zm-3,3.21H3.53V28.28H48.1a15.94,15.94,0,0,0,.32-2.18C48.44,18.58,48.43,11.06,48.43,3.21ZM35.19,42.31c-.77-2.64.81-5.74-3.12-5.56s-7.66.64-11.37,1c-.9,5.38-.71,5.76,3.9,5.63C27.9,43.24,31.2,42.72,35.19,42.31Zm-1.55-8.25C32,31.79,22.05,31,20.82,32a1.94,1.94,0,0,0-.61,1.66c.21.6,1,1.45,1.45,1.42C25.66,34.84,29.64,34.42,33.64,34.06Z"/><path class="cls-1" d="M12.42,4.76c6.77,0,13.58-.07,20.38.12.67,0,1.9,1.68,1.85,2.52-.26,4.51-.95,9-1.26,13.52-.14,2.13-.79,3.24-3.06,3.21-4.7-.06-9.4.1-14.08-.12a3.45,3.45,0,0,1-2.5-2.19C13.15,16.42,12.87,11,12.42,4.76Zm3.83,17c4.46,0,8.58.15,12.69-.05,3.35-.17,2-3,1.95-4.67,0-1.13-1.24-3.15-2.05-3.22-4.09-.33-8.21-.15-12.59-.15ZM15,7.34c-.27,3.24.77,4.74,4.05,4.5a63.9,63.9,0,0,1,8.86,0c3.34.22,4.19-1.45,4-4.5Z"/><path class="cls-1" d="M43.7,16.28l-4.42,4.55c-.86-1-2.58-2.25-2.38-3a9.59,9.59,0,0,1,3-4.17C40.07,13.5,41.86,15,43.7,16.28Z"/></g></g></svg>