<svg xmlns="http://www.w3.org/2000/svg" viewBox="0 0 54.45 54.6"><defs><style>.cls-1{fill:#4b515f;}</style></defs><title>資產 88</title><g id="圖層_2" data-name="圖層 2"><g id="圖層_2-2" data-name="圖層 2"><path class="cls-1" d="M26.72,54.53c-7.4,0-14.8-.12-22.2,0C1.3,54.65,0,53.8,0,50.28Q.27,27.22,0,4.16C0,.91,1.11,0,4.24.06,19.47.18,34.7.19,49.93,0c3.69,0,4.54,1.35,4.51,4.75q-.21,22.62,0,45.26c0,3.6-1.17,4.68-4.67,4.58C42.1,54.38,34.41,54.53,26.72,54.53ZM50.84,43.79h-47V50.9h47ZM26,31.19V22.92c-4.6,1.24-9.54-2.08-12.26,1.47L2.81,22.51c.82,4.24,1.42,7.26,1.88,9.62C4.13,35.2,3.62,38,2.9,42l10.81-1.79c3,3.33,7.84.48,12.79,1.28-.27-2.94.22-5.63-.88-7.21C24.75,33,21.92,33.1,20,32.6l.17-.93Zm16,7.52c2,3.13,3.74,3.47,9.6,1.82-.57-2.81-1.16-5.67-1.81-8.91,3.42-1.49.85-5.09,1.2-8.73-3.38,1-7.15-1.77-9,2.8-4-4.81-8.84-1.68-13.24-2.54v7.94l5.63.76-.09,1-5.59,1v8C33.21,40.08,38.24,44,41.94,38.71ZM4.7,11.68c-.56,3.13-1.07,5.93-1.8,10l10.71-1.91c1.64,2.91,5.28.92,8.29,1.28,2.27.28,4.56.44,4.5-3.22,0-3.12-.25-5.41-4.26-4.88-.69.09-1.49-.56-2.23-.87l.18-.77L26,10.65V3.37c-4.62.64-9.18-1.59-12.25,1L2.8,3ZM40.91,4.39C37.82,1.7,33.18,4,28.62,3.44v7.21l5.75.68.05,1.09-5.73,1.06v7.11c8.33,1.25,10.77.84,13.19-2.18,2,4.17,5.51,2.51,8.89,2.39.33-3.39,1.72-6.75-1-8.19.59-3.31,1.07-6,1.72-9.69Z"/><path class="cls-1" d="M18.23,33.55c-1.89,1.25-3.68,3.31-5.69,3.56-2.89.35-4.74-2-4.66-4.92s2.12-5.13,5-4.61c2,.37,3.66,2.54,5.47,3.9Zm-2.22-1c-1.55-1.2-2.51-2.49-3.29-2.39a3.5,3.5,0,0,0-2.17,2.37c-.12.56,1.24,2,2,2.06C13.42,34.6,14.36,33.56,16,32.53Z"/><path class="cls-1" d="M42.64,26.66c1.36,1.82,3.52,3.49,3.9,5.49.58,3.09-1.72,5.11-4.83,5.09-2.86,0-5.15-1.89-4.63-4.82.36-2.05,2.35-3.81,3.61-5.71Zm2.49,5.64c-1.57-1.07-2.55-2.27-3.38-2.17a3.14,3.14,0,0,0-2.1,2.28,3.13,3.13,0,0,0,2.2,2.2C42.68,34.67,43.61,33.44,45.13,32.3Z"/><path class="cls-1" d="M18.3,12.78c-1.79,1.36-3.43,3.53-5.4,3.89-3.08.57-5-1.7-5-4.84,0-2.95,2-5.12,4.78-4.72,2,.29,3.74,2.4,5.59,3.69ZM13,8.51c-1.26,1.57-2.55,2.47-2.5,3.29s1.26,2,2.21,2.37c.44.17,2-1.17,2.09-1.91C14.9,11.32,14,10.3,13,8.51Z"/><path class="cls-1" d="M36.17,10.87C38,9.55,39.71,7.62,41.76,7.05c2.49-.68,5.24,2.46,5,5.13-.32,2.94-2.18,5.09-5,4.52-2-.4-3.69-2.5-5.52-3.84Zm9,1.27C43.67,11,42.79,9.68,41.93,9.7a3.16,3.16,0,0,0-2.29,2.11,3.14,3.14,0,0,0,2,2.35C42.52,14.29,43.55,13.14,45.15,12.14Z"/></g></g></svg>