<svg xmlns="http://www.w3.org/2000/svg" viewBox="0 0 60.97 61.03"><defs><style>.cls-1{fill:#4b515f;}</style></defs><title>資產 85</title><g id="圖層_2" data-name="圖層 2"><g id="圖層_2-2" data-name="圖層 2"><path class="cls-1" d="M.06,27.9C.06,20.08.18,12.25,0,4.43-.07,1.11,1.06,0,4.42,0,20.06.14,35.71,0,51.36.1c6.1,0,9.45,3.44,9.52,9.56.09,7.5.18,15-.1,22.51A30,30,0,0,1,32.14,60.85c-7.49.28-15,.17-22.51.06C3.45,60.81.19,57.53.1,51.38,0,43.56.07,35.73.06,27.9ZM4.55,3.82c-.41.84-.66,1.11-.66,1.38-.06,15.49-.13,31-.1,46.46,0,3.7,2.21,5.52,5.82,5.53,7.51,0,15,.25,22.52-.09a26.12,26.12,0,0,0,25-25.48c.2-7,.14-14.06.06-21.08,0-5.25-1.57-6.68-7-6.71-8.94-.06-17.89,0-26.83,0Z"/><path class="cls-1" d="M18,6.6c11.2,0,22.18-.11,33.15.17,1.11,0,3.06,2.32,3.1,3.61a219.38,219.38,0,0,1-.12,22.94c-.85,11.56-10.91,20.81-22.72,21.26-6.85.26-13.71,0-20.57.1-3.29,0-4.57-1.37-4.54-4.59.08-9.72,0-19.45.12-29.17a4.59,4.59,0,0,1,2.23-3.4C15.43,14.72,15.94,14.3,18,6.6ZM9.15,51.87c7.39,0,14.06.07,20.72,0,12.73-.16,21.51-8.89,21.8-21.7.13-5.58-.15-11.17.1-16.73.16-3.48-1.24-4.32-4.45-4.25-7.65.18-15.3.14-22.95,0-2.69,0-4,.75-5.36,3.36s-4.54,4.6-6.89,6.87c-1,1-2.82,2-2.84,3C9.06,32,9.15,41.53,9.15,51.87Z"/><path class="cls-1" d="M22.29,16.66C24,19.42,25.78,21,25.68,22.47c-.08,1.25-2.3,2.36-3.58,3.53-1.22-1.36-3.17-2.6-3.43-4.13C18.47,20.72,20.43,19.2,22.29,16.66Z"/></g></g></svg>