<svg xmlns="http://www.w3.org/2000/svg" viewBox="0 0 52.37 46.03"><defs><style>.cls-1{fill:#4b515f;}</style></defs><title>資產 93</title><g id="圖層_2" data-name="圖層 2"><g id="圖層_2-2" data-name="圖層 2"><path class="cls-1" d="M26.18.08C31.94.08,37.71.25,43.46,0c3-.13,4.63,1.08,5.31,3.85,1.18,4.77,2.86,9.49,3.4,14.33C53.39,29,48.88,37.28,39.41,42.41c-9.89,5.35-19.87,4.77-29.12-1.7-8.82-6.17-11.5-15-9.81-25.33C3,.17,3.15.07,18.36.07Zm.27,3.13c-5.35,0-10.71.09-16,0-2.27-.05-3.71.62-4.2,2.9-1,4.55-2.51,9.06-2.82,13.65C2.52,32.52,12.6,42.52,26,42.64c13.54.12,23.87-9.88,23-22.85-.31-4.72-1.72-9.41-3.1-14-.34-1.15-2.45-2.42-3.81-2.5C36.89,3,31.67,3.21,26.45,3.21Z"/><path class="cls-1" d="M27.51,10.85c3.58,1.39,7,2.21,9.87,3.93,8.94,5.33,9.14,16.32.36,21.95-7.2,4.63-14.92,4.67-22.3.5C5.64,31.7,5.77,20,15.57,14.45c2.11-1.19,4.69-1.51,6.87-2.6A5.41,5.41,0,0,0,24.58,9c.42-1.1.16-2.45.5-3.6a4.41,4.41,0,0,1,2.41.14,15.75,15.75,0,0,1,.16,3.71C27.65,9.76,27.56,10.29,27.51,10.85Zm-.71,8.53-1.26-.07c-.31-1.62-.63-3.25-1-5.37a44.28,44.28,0,0,0-6,1.67c-4.41,1.91-7.78,4.95-7.82,10.1-.05,5.34,3.34,8.5,7.93,10.46a18.79,18.79,0,0,0,16.68-.65c5.37-2.8,7.67-8.05,5.91-13S33.1,14,27.76,14.83Z"/><path class="cls-1" d="M26.23,23.66c1.49,2.27,3,3.56,2.89,4.66s-1.78,2.27-2.77,3.4c-1.12-1.15-2.83-2.16-3.14-3.49C23,27.28,24.67,25.9,26.23,23.66Z"/></g></g></svg>