<svg xmlns="http://www.w3.org/2000/svg" viewBox="0 0 66.04 33.09"><defs><style>.cls-1{fill:#4b515f;}</style></defs><title>資產 86</title><g id="圖層_2" data-name="圖層 2"><g id="圖層_2-2" data-name="圖層 2"><path class="cls-1" d="M33,33C23,33,13,33,3,33.09c-2.26,0-3-.63-2.95-2.93C.12,21,.1,11.84,0,2.69,0,.65.61,0,2.66,0q30.2.09,60.39,0c2.18,0,3,.56,3,2.91-.13,9.16-.1,18.32,0,27.48,0,2-.66,2.69-2.69,2.68C53.23,33,43.12,33,33,33ZM63.86,2.21H2.23v28.6H63.86Z"/><path class="cls-1" d="M60.74,16.6c0,2.94-.06,5.87,0,8.81,0,1.79-.75,2.47-2.48,2.45-4.15-.05-8.29,0-12.43,0-1.71,0-2.54-.65-2.52-2.45,0-5.87.05-11.74,0-17.6,0-1.91.78-2.61,2.65-2.58,4.05.07,8.11.06,12.16,0,1.85,0,2.7.63,2.63,2.57C60.66,10.73,60.74,13.67,60.74,16.6ZM44,19.29c.77,1.31,1.23,2.87,1.76,2.89,4.54.2,9.09.11,13.7.11v-3Zm.7-5.54h15c-.06-1.05-.1-1.87-.15-2.79H44.68Zm-.12-7.13c.06,1.15.09,2,.14,3H59.46v-3ZM59.65,26.47l-.14-3H44.75v3ZM44.59,15.08c.06,1.12.1,2,.13,2.82h15c-.06-1.06-.11-1.88-.17-2.82Z"/><path class="cls-1" d="M16.47,28.27c-2.16,0-4.32.08-6.47,0-3.23-.14-4.89-1.87-4.92-5.08Q5,16.7,5.07,10.24c0-3.61,1.6-5.34,5.12-5.42,4.39-.09,8.79,0,13.18,0a4.48,4.48,0,0,1,2.23.53c1.3.78,2.14.82,2.79-.79.17-.42,1.06-.71,1.65-.75.28,0,.9.77.84,1.08-.12.58-.56,1.47-1,1.55-2,.34-1.77,1.61-1.74,3.08.1,4.56.1,9.13,0,13.7,0,3.23-1.72,4.88-5,5C21,28.35,18.71,28.27,16.47,28.27ZM25.62,7.05a5.65,5.65,0,0,0-1.34-.54c-5,0-10-.16-15,0-2,0-2.75,1.54-2.76,3.42,0,4.39,0,8.78,0,13.18,0,2.31,1.14,3.6,3.43,3.63,4.48.07,9,.18,13.43-.09,1.12-.07,3-1.49,3.06-2.37.3-5,.15-10.07.15-15.36l-3.84,1.91-.46-.69Z"/><path class="cls-1" d="M30.65,16.26c0-1.63,0-3.27,0-4.9.07-3,1.3-4.13,4.31-4.21.6,0,1.2,0,1.8,0,2.84.1,4.12,1.29,4.17,4.1.06,3.53.07,7.06,0,10.58-.07,3.22-1.54,4.17-6,4.09-3-.05-4.21-1.27-4.25-4.24,0-1.81,0-3.61,0-5.42Zm1.53.22h0V21.9c0,2.09,1.26,2.67,3.05,2.53s4.14.56,4.2-2.42c.07-3.7.08-7.4,0-11.09a2.77,2.77,0,0,0-1.25-2c-3.29-1.62-5.93.08-5.94,3.69Z"/><path class="cls-1" d="M24,16.42c-1.46,1.13-2.35,2.35-3.12,2.28a3.1,3.1,0,0,1-2.2-2.09c0-.75,1.22-2.08,2.05-2.21S22.42,15.41,24,16.42Z"/><path class="cls-1" d="M35.67,19.81c-1-1.56-2.14-2.54-2-3.34s1.44-1.5,2.24-2.23c.74.8,2,1.56,2,2.4S36.78,18.35,35.67,19.81Z"/></g></g></svg>