<svg xmlns="http://www.w3.org/2000/svg" viewBox="0 0 66.08 33.02"><defs><style>.cls-1{fill:#4b515f;}</style></defs><title>資產 84</title><g id="圖層_2" data-name="圖層 2"><g id="圖層_2-2" data-name="圖層 2"><path class="cls-1" d="M32.88,32.94q-15.14,0-30.28,0C.84,33,0,32.47,0,30.45q.15-12,0-24.08c0-2,.61-2.84,2.61-3.3C16.64-.18,30.85-.48,45.09.48,51.26.89,57.36,2.25,63.5,3.11c1.9.26,2.58,1.13,2.56,3.08-.09,7.94-.13,15.88,0,23.82,0,2.48-.86,3-3.16,3-10-.1-20,0-30,0ZM63.7,30.86a3.88,3.88,0,0,0,.31-1c0-7.68.09-15.36,0-23,0-.7-1.2-1.84-2-2A167.6,167.6,0,0,0,45.35,2.53C31.71,1.63,18.1,1.86,4.62,4.64,2.61,5.05,2,5.83,2,7.86c.11,6.21,0,12.43,0,18.65v4.35Z"/><path class="cls-1" d="M28.66,4.76l1.13-2,1.28,2.06c1.13-1.62,2.51-2.87,3.78,0l1.4-2.1L37.4,4.78c6.49.48,13.28,1,20.08,1.45,2.17.13,3,.84,2.91,3.12-.17,5.26-.13,10.53,0,15.79,0,2-.56,2.73-2.55,2.93a240,240,0,0,1-49.12,0c-2.27-.24-3.2-1-3.1-3.5.22-5.17.15-10.36,0-15.53,0-1.89.56-2.62,2.43-2.75C15,5.85,21.83,5.28,28.66,4.76Zm4.61,3.53c-1-.64-2-1.79-2.87-1.75C23.24,6.81,16.09,7.26,9,7.81A2.58,2.58,0,0,0,7.29,9.68c-.17,3.54-.09,7.08-.09,10.62v6.14a226.11,226.11,0,0,0,50,0,2.62,2.62,0,0,0,1.52-2c.14-4.75,0-9.5.12-14.24.07-2-.75-2.53-2.53-2.62C50,7.3,43.76,6.86,37.46,6.52,35.67,6.42,33.59,5.91,33.27,8.29Z"/><path class="cls-1" d="M33.18,24.64c-5.44,0-10.88-.05-16.32,0-2.35,0-3.61-1-3.66-3.3-.07-2.93-.11-5.87,0-8.8,0-2,1.23-3,3.18-3q16.71,0,33.42,0c2.08,0,3.16,1.15,3.16,3.27,0,2.85,0,5.7,0,8.55,0,2.29-1.18,3.23-3.41,3.22-5.44,0-10.88,0-16.32,0Zm-.24-1.12c5.34,0,10.69-.06,16,0,2.14,0,3-.81,2.88-2.91-.1-2.41-.09-4.83,0-7.24.06-1.86-.71-2.71-2.57-2.71q-16.29,0-32.58,0c-1.75,0-2.51.88-2.51,2.55,0,2.5.09,5,0,7.5-.06,2.13.87,2.85,3,2.8C22.42,23.44,27.68,23.52,32.94,23.52Z"/><path class="cls-1" d="M33.06,11.16c.75,1.14,1.55,1.83,1.54,2.51s-1,1.08-1.52,1.62c-.59-.59-1.5-1.1-1.65-1.79C31.32,13,32.23,12.29,33.06,11.16Z"/></g></g></svg>