<svg xmlns="http://www.w3.org/2000/svg" viewBox="0 0 52.32 45.53"><defs><style>.cls-1{fill:#4b515f;}</style></defs><title>資產 94</title><g id="圖層_2" data-name="圖層 2"><g id="圖層_2-2" data-name="圖層 2"><path class="cls-1" d="M22.92,40c-.5,2.14-.83,3.82-1.36,5.42,0,.15-2,0-2.1-.27A35.9,35.9,0,0,1,18.57,40c-4.22,0-9-.16-13.83.06-3.45.15-4.82-.86-4.74-4.57C.24,25.34.21,15.15,0,5,0,1.53.83.2,4.55.23,19.34.33,34.15.14,49,0c2.48,0,3.4,1.12,3.37,3.47-.13,10.86-.29,21.72-.27,32.58,0,3-1,4.09-4,4C39.5,40,31,40,22.92,40Zm-.38-7.71c6.39.28,8.45-.87,8.61-5.08.17-4.73.1-9.47,0-14.21-.06-3.24-1.88-5-5.13-5C22,7.94,17.9,8,13.84,8c-3.43,0-5.26,1.82-5.28,5.29,0,4.06,0,8.12,0,12.18,0,3,.22,6.05,3.78,6.69,3.19.59,7.1,2,8.19-4.61C21.53,29.94,22,31.07,22.54,32.33Zm-3.33,4.14c0-.54.05-1.08.08-1.63-1.67,0-3.34.06-5,0-5.12-.19-7.89-2.74-8.07-7.73q-.24-6.92,0-13.84c.18-4.89,2.84-7.58,7.69-7.65q12.61-.18,25.25,0c5.11.08,7.59,2.74,7.69,8q.13,6.53,0,13c-.1,5.14-3,8.08-8.08,8.2-4.34.11-8.69,0-13,0a33.27,33.27,0,0,0-3.58.42c.44,1.08.87,1.48,1.3,1.48,7.73.06,15.47.17,23.2-.06.77,0,2.1-2.16,2.12-3.33.18-8.69,0-17.38.16-26.06.06-3-.8-4-3.89-4-11.26.16-22.53.06-33.8.06H3.67V36.47ZM33.16,8.22V32.47h4.38c5.45,0,7-1.59,7.08-7,0-2.45,0-4.89,0-7.33,0-9.79-.92-10.65-10.8-10.09A3.15,3.15,0,0,0,33.16,8.22Z"/><path class="cls-1" d="M19.66,20.2c-1.52,1.05-2.57,2.29-3.23,2.11-1-.26-1.65-1.54-2.45-2.39.83-.68,1.64-1.86,2.5-1.9S18.19,19.12,19.66,20.2Z"/></g></g></svg>