<svg xmlns="http://www.w3.org/2000/svg" viewBox="0 0 62.32 25.46"><defs><style>.cls-1{fill:#4b515f;}</style></defs><title>資產 83</title><g id="圖層_2" data-name="圖層 2"><g id="圖層_2-2" data-name="圖層 2"><path class="cls-1" d="M31.22,25.42c-9.37,0-18.73-.06-28.1,0-2.25,0-3.2-.52-3.12-2.94C.17,17.47,0,12.4.06,7.34.09,2.56,2.62,0,7.44,0Q31.26,0,55.07,0c4.52,0,7.17,2.6,7.2,7,0,5.22-.08,10.45,0,15.67.06,2.1-.61,2.79-2.77,2.77C50.11,25.37,40.66,25.42,31.22,25.42ZM7,7.28a40.14,40.14,0,0,1,5.91-1q17.84-.12,35.66,0c1.86,0,3.71.74,5.57,1.09a2.24,2.24,0,0,0,1.31-.13c1.49-.76,2.93-1.61,4.49-2.48a4.42,4.42,0,0,0-4.57-2.9H43.16c-11.89,0-23.78,0-35.66,0-2.38,0-4.24.64-5.1,3Zm17.29.94c0,4.83,0,9.38.06,13.93a1.83,1.83,0,0,0,1.2,1.31c4,.1,8.08.06,12.23.06V8.22Zm15.16-.06c0,4.92,0,9.63.06,14.33,0,.35.82,1,1.28,1,3.57.08,7.15.12,10.72,0A2.17,2.17,0,0,0,53,21.94c.13-3.92.15-7.85,0-11.77a2.69,2.69,0,0,0-1.82-1.92C47.36,8.07,43.55,8.16,39.45,8.16Zm-16.59,0c-4.16,0-7.9-.07-11.63.07-.65,0-1.81.89-1.82,1.4-.14,4.54-.08,9.1-.08,13.9,4.29,0,8.27,0,12.24-.06a1.82,1.82,0,0,0,1.23-1.29C22.89,17.6,22.86,13,22.86,8.15ZM1.94,7c0,5.06,0,10.09.05,15.11a1.87,1.87,0,0,0,1.25,1.3,31.88,31.88,0,0,0,4.18.06c0-3.84,0-7.27,0-10.71C7.42,9.21,6,7.67,1.94,7ZM60.23,23.11V7C56.24,7.76,55,9.15,55,12.8c0,2.16,0,4.32,0,6.49,0,4.79,0,4.79,4.92,4.1C60,23.38,60,23.29,60.23,23.11Z"/></g></g></svg>