<svg xmlns="http://www.w3.org/2000/svg" viewBox="0 0 68.56 33.83"><defs><style>.cls-1{fill:#4b515f;}</style></defs><title>資產 92</title><g id="圖層_2" data-name="圖層 2"><g id="圖層_2-2" data-name="圖層 2"><path class="cls-1" d="M39.14,33.44v-3.6H29.71c.9,3.45-1.21,4-3.82,4-3.14,0-6.27-.21-9.54-.32l.27-3.75H6.87V23a35.94,35.94,0,0,0-4.17.31C1,23.61,0,23.15,0,21.35c0-3.65,0-7.3,0-11.23l6.61.43V3.86h10c-.09-1.33-.15-2.29-.24-3.8h13.3V3.62h9.47V0H52.56c-.11,1.45-.18,2.41-.27,3.66H62c.11,2.35.21,4.45.32,6.83l6.19-.38c0,4.09.07,8-.08,11.89,0,.46-1.17,1.2-1.84,1.25a28.84,28.84,0,0,1-4.34-.36v6.67H52.34c.08,1.33.13,2.35.22,3.88Zm20.78-6V6.12H9.05V27.46Zm4.83-10.8a31.06,31.06,0,0,0,0,3.74,1.63,1.63,0,0,0,1.13,1.09,1.56,1.56,0,0,0,1.19-1q.18-3.72,0-7.44c0-.42-.71-.81-1.1-1.21-.43.45-1.16.84-1.25,1.34A22.14,22.14,0,0,0,64.75,16.66ZM23.09,3.75a31.93,31.93,0,0,0,3.79,0c.43-.06.95-.7,1.1-1.17.08-.29-.48-1.09-.76-1.1-2.7-.09-5.4-.1-8.1,0-.3,0-.75.86-.79,1.35,0,.3.6.89,1,.92C20.55,3.82,21.82,3.75,23.09,3.75Zm22.65,0v0a22.92,22.92,0,0,0,3.52-.06,2.14,2.14,0,0,0,1.32-1.19c.1-.22-.63-1.14-1-1.15-2.52-.12-5-.12-7.57,0-.41,0-.78.73-1.17,1.12.46.43.87,1.14,1.39,1.22A21.74,21.74,0,0,0,45.74,3.76ZM23.17,29.7a24.29,24.29,0,0,0-3.52.06c-.51.07-.93.73-1.4,1.13.45.44.87,1.25,1.33,1.27,2.43.11,4.88.07,7.31-.06.41,0,.78-.72,1.18-1.11-.46-.43-.86-1.15-1.38-1.23A21.7,21.7,0,0,0,23.17,29.7Zm22.67,0a29.75,29.75,0,0,0-3.78.06,1.63,1.63,0,0,0-1.13,1.12,1.51,1.51,0,0,0,1,1.18c2.52.12,5,.15,7.56,0,.41,0,.94-.85,1.1-1.39.06-.2-.73-.91-1.19-1A29.51,29.51,0,0,0,45.84,29.71ZM3.94,16.63a25.51,25.51,0,0,0-.06-3.5A1.65,1.65,0,0,0,2.76,12c-.38,0-1.2.6-1.21,1-.11,2.5-.12,5,0,7.52a1.59,1.59,0,0,0,1.18,1,1.63,1.63,0,0,0,1.15-1.11A31.42,31.42,0,0,0,3.94,16.63Zm1.83,4.45h.56V12.37H5.77Zm57.16-8.31h-.41v8h.41Z"/></g></g></svg>