<svg xmlns="http://www.w3.org/2000/svg" viewBox="0 0 45.6 31.72"><defs><style>.cls-1{fill:#4b515f;}</style></defs><title>資產 95</title><g id="圖層_2" data-name="圖層 2"><g id="圖層_2-2" data-name="圖層 2"><path class="cls-1" d="M45.6,15.82c0,10-7.17,16.59-17.29,15.84-6.3-.47-12.6-1-18.92-1.23-4.06-.12-6.48-2-7.77-5.62A25.21,25.21,0,0,1,1.91,6.29,7.34,7.34,0,0,1,9,1.34C15.6,1.1,22.14.53,28.68.06,38.91-.68,45.57,5.51,45.6,15.82Zm-42.72.7a36.29,36.29,0,0,0,.4,4.23c1.14,5.76,2.51,6.75,8.38,7,6.43.33,12.84.95,19.26,1.26a9.81,9.81,0,0,0,4.73-.9c7.24-3.59,8.55-9,6.42-17.23C40.48,4.8,35.41,2.22,28,2.9q-8,.72-16,1.15C5.46,4.42,3.76,6,3.09,12.55,3,13.74,3,14.93,2.88,16.52Z"/><path class="cls-1" d="M9.48,17.85a43.8,43.8,0,0,1-4.81-1.09,3.07,3.07,0,0,1,.06-1.87A41.7,41.7,0,0,1,9.43,14c.1-.36.38-1.21.57-2.09.74-3.28,2.69-5.28,6.1-5.62,4.27-.41,8.55-1,12.84-1.05,4.62-.07,9,1.14,11,5.88,1.74,4.1,1.84,8.56-1.85,11.53a17.79,17.79,0,0,1-8.91,3.69c-4.21.43-8.56-.32-12.84-.74C11.45,25.16,10.08,21.48,9.48,17.85Zm4.41-1.8c-.56,1-2.07,2.53-1.75,3.2.8,1.63,2.31,3.86,3.77,4.06a95.93,95.93,0,0,0,16,.86c4.38-.14,6.47-2.78,6.87-7.19.53-5.86-2.88-9.61-9.22-9.59A74,74,0,0,0,16.41,8.5c-1.61.29-3.3,2.07-4.19,3.62C11.81,12.83,13.23,14.6,13.89,16.05Z"/><path class="cls-1" d="M22.89,15.89c-1.91,1.33-3.12,2.78-4,2.59-1.13-.25-2-1.78-2.94-2.75,1-.86,1.88-2.32,2.91-2.4S21,14.59,22.89,15.89Z"/></g></g></svg>